<svg width="16" height="16" viewBox="0 0 16 16" fill="none" xmlns="http://www.w3.org/2000/svg">
<g clip-path="url(#clip0_595_5354)">
<path d="M1.33398 8.00065H3.33398M3.33398 8.00065C3.33398 10.578 5.42332 12.6673 8.00065 12.6673M3.33398 8.00065C3.33398 5.42332 5.42332 3.33398 8.00065 3.33398M12.6673 8.00065H14.6673M12.6673 8.00065C12.6673 10.578 10.578 12.6673 8.00065 12.6673M12.6673 8.00065C12.6673 5.42332 10.578 3.33398 8.00065 3.33398M8.00065 1.33398V3.33398M8.00065 12.6673V14.6673M10.0007 8.00065C10.0007 9.10522 9.10522 10.0007 8.00065 10.0007C6.89608 10.0007 6.00065 9.10522 6.00065 8.00065C6.00065 6.89608 6.89608 6.00065 8.00065 6.00065C9.10522 6.00065 10.0007 6.89608 10.0007 8.00065Z" stroke="#FAFAFA" stroke-width="1.5" stroke-linecap="round" stroke-linejoin="round"/>
</g>
<defs>
<clipPath id="clip0_595_5354">
<rect width="16" height="16" fill="white"/>
</clipPath>
</defs>
</svg>
