<svg width="17" height="16" viewBox="0 0 17 16" fill="none" xmlns="http://www.w3.org/2000/svg">
<path d="M8.49998 11.5171L5.73331 13.1838C5.61109 13.2616 5.48331 13.2949 5.34998 13.2838C5.21664 13.2727 5.09998 13.2282 4.99998 13.1505C4.89998 13.0727 4.8222 12.9756 4.76664 12.8591C4.71109 12.7427 4.69998 12.612 4.73331 12.4671L5.46664 9.31712L3.01664 7.20046C2.90553 7.10046 2.8362 6.98646 2.80864 6.85846C2.78109 6.73046 2.78931 6.60557 2.83331 6.48379C2.87731 6.36201 2.94398 6.26201 3.03331 6.18379C3.12264 6.10557 3.24486 6.05557 3.39998 6.03379L6.63331 5.75046L7.88331 2.78379C7.93886 2.65046 8.02509 2.55046 8.14198 2.48379C8.25886 2.41712 8.3782 2.38379 8.49998 2.38379C8.62175 2.38379 8.74109 2.41712 8.85798 2.48379C8.97486 2.55046 9.06109 2.65046 9.11664 2.78379L10.3666 5.75046L13.6 6.03379C13.7555 6.05601 13.8778 6.10601 13.9666 6.18379C14.0555 6.26157 14.1222 6.36157 14.1666 6.48379C14.2111 6.60601 14.2195 6.73112 14.192 6.85912C14.1644 6.98712 14.0949 7.1009 13.9833 7.20046L11.5333 9.31712L12.2666 12.4671C12.3 12.6116 12.2889 12.7422 12.2333 12.8591C12.1778 12.976 12.1 13.0731 12 13.1505C11.9 13.2278 11.7833 13.2722 11.65 13.2838C11.5166 13.2953 11.3889 13.262 11.2666 13.1838L8.49998 11.5171Z" fill="#C0C0C0"/>
</svg>
