<svg width="28" height="28" viewBox="0 0 28 28" fill="none" xmlns="http://www.w3.org/2000/svg">
<g clip-path="url(#clip0_388_7306)">
<g filter="url(#filter0_d_388_7306)">
<path d="M2.57482 11.1238C2.41608 11.4479 2.33389 11.8009 2.33398 12.1582V23.2111C2.33398 23.8625 2.60713 24.4873 3.09334 24.9479C3.57954 25.4085 4.23898 25.6673 4.92658 25.6673H12.3271H15.6742H23.0747C23.7623 25.6673 24.4218 25.4085 24.908 24.9479C25.3942 24.4873 25.6673 23.8625 25.6673 23.2111V12.1582C25.6674 11.8009 25.5852 11.4479 25.4265 11.1238C25.2677 10.7997 25.0363 10.5123 24.7482 10.2816L15.6742 2.91424C15.2062 2.53955 14.6133 2.33398 14.0007 2.33398C13.388 2.33398 12.7951 2.53955 12.3271 2.91424L3.25306 10.2816C2.96502 10.5123 2.73356 10.7997 2.57482 11.1238Z" fill="white"/>
</g>
<path d="M15.5062 17.3162V23.5C15.5062 24.0523 15.9539 24.5 16.5062 24.5H22.1667C22.7855 24.5 23.379 24.2671 23.8166 23.8525C24.2542 23.438 24.5 22.8757 24.5 22.2894V12.3418C24.5001 12.0202 24.4261 11.7025 24.2832 11.4108C24.1404 11.1191 23.9321 10.8605 23.6728 10.6529L15.5062 4.02223C15.085 3.68501 14.5514 3.5 14 3.5C13.4486 3.5 12.915 3.68501 12.4938 4.02223L4.32717 10.6529C4.06793 10.8605 3.85962 11.1191 3.71675 11.4108C3.57389 11.7025 3.49992 12.0202 3.5 12.3418V22.2894C3.5 22.8757 3.74583 23.438 4.18342 23.8525C4.621 24.2671 5.21449 24.5 5.83333 24.5H11.4938C12.0461 24.5 12.4938 24.0523 12.4938 23.5V17.3162C12.4938 17.023 12.6167 16.7419 12.8355 16.5346C13.0543 16.3273 13.3511 16.2109 13.6605 16.2109H14.3395C14.6489 16.2109 14.9457 16.3273 15.1645 16.5346C15.3833 16.7419 15.5062 17.023 15.5062 17.3162Z" fill="#FF6638"/>
</g>
<defs>
<filter id="filter0_d_388_7306" x="-1.46602" y="-0.466016" width="30.934" height="30.934" filterUnits="userSpaceOnUse" color-interpolation-filters="sRGB">
<feFlood flood-opacity="0" result="BackgroundImageFix"/>
<feColorMatrix in="SourceAlpha" type="matrix" values="0 0 0 0 0 0 0 0 0 0 0 0 0 0 0 0 0 0 127 0" result="hardAlpha"/>
<feOffset dy="1"/>
<feGaussianBlur stdDeviation="1.9"/>
<feComposite in2="hardAlpha" operator="out"/>
<feColorMatrix type="matrix" values="0 0 0 0 0 0 0 0 0 0 0 0 0 0 0 0 0 0 0.11 0"/>
<feBlend mode="normal" in2="BackgroundImageFix" result="effect1_dropShadow_388_7306"/>
<feBlend mode="normal" in="SourceGraphic" in2="effect1_dropShadow_388_7306" result="shape"/>
</filter>
<clipPath id="clip0_388_7306">
<rect width="28" height="28" fill="white"/>
</clipPath>
</defs>
</svg>
