<svg width="24" height="24" viewBox="0 0 24 24" fill="none" xmlns="http://www.w3.org/2000/svg">
<g clip-path="url(#clip0_388_7302)">
<g filter="url(#filter0_d_388_7302)">
<path d="M2.20643 9.5341C2.07037 9.8119 1.99992 10.1145 2 10.4207V19.8947C2 20.453 2.23413 20.9885 2.65087 21.3834C3.06762 21.7782 3.63285 22 4.22222 22H10.5656H13.4344H19.7778C20.3671 22 20.9324 21.7782 21.3491 21.3834C21.7659 20.9885 22 20.453 22 19.8947V10.4207C22.0001 10.1145 21.9296 9.8119 21.7936 9.5341C21.6575 9.25629 21.4591 9.00996 21.2122 8.81227L13.4344 2.49736C13.0333 2.1762 12.5252 2 12 2C11.4748 2 10.9667 2.1762 10.5656 2.49736L2.78778 8.81227C2.54089 9.00996 2.34249 9.25629 2.20643 9.5341Z" fill="white"/>
</g>
<path d="M13.291 14.8424V20C13.291 20.5523 13.7387 21 14.291 21H19C19.5304 21 20.0391 20.8004 20.4142 20.445C20.7893 20.0897 21 19.6077 21 19.1052V10.5787C21.0001 10.303 20.9367 10.0307 20.8142 9.78069C20.6918 9.53066 20.5132 9.30896 20.291 9.13104L13.291 3.44762C12.93 3.15858 12.4726 3 12 3C11.5274 3 11.07 3.15858 10.709 3.44762L3.709 9.13104C3.4868 9.30896 3.30824 9.53066 3.18579 9.78069C3.06333 10.0307 2.99993 10.303 3 10.5787V19.1052C3 19.6077 3.21071 20.0897 3.58579 20.445C3.96086 20.8004 4.46957 21 5 21H9.709C10.2613 21 10.709 20.5523 10.709 20V14.8424C10.709 14.5912 10.8144 14.3502 11.0019 14.1725C11.1894 13.9949 11.4438 13.895 11.709 13.895H12.291C12.5562 13.895 12.8106 13.9949 12.9981 14.1725C13.1856 14.3502 13.291 14.5912 13.291 14.8424Z" fill="#D1CBC7"/>
</g>
<defs>
<filter id="filter0_d_388_7302" x="0" y="1" width="24" height="24" filterUnits="userSpaceOnUse" color-interpolation-filters="sRGB">
<feFlood flood-opacity="0" result="BackgroundImageFix"/>
<feColorMatrix in="SourceAlpha" type="matrix" values="0 0 0 0 0 0 0 0 0 0 0 0 0 0 0 0 0 0 127 0" result="hardAlpha"/>
<feOffset dy="1"/>
<feGaussianBlur stdDeviation="1"/>
<feComposite in2="hardAlpha" operator="out"/>
<feColorMatrix type="matrix" values="0 0 0 0 0.427451 0 0 0 0 0.368627 0 0 0 0 0.301961 0 0 0 0.11 0"/>
<feBlend mode="normal" in2="BackgroundImageFix" result="effect1_dropShadow_388_7302"/>
<feBlend mode="normal" in="SourceGraphic" in2="effect1_dropShadow_388_7302" result="shape"/>
</filter>
<clipPath id="clip0_388_7302">
<rect width="24" height="24" fill="white"/>
</clipPath>
</defs>
</svg>
