<svg width="24" height="24" viewBox="0 0 24 24" fill="none" xmlns="http://www.w3.org/2000/svg">
<g clip-path="url(#clip0_388_7305)">
<g filter="url(#filter0_d_388_7305)">
<rect x="2" y="2" width="20" height="20" rx="10" fill="#D1CBC7"/>
<rect x="2.5" y="2.5" width="19" height="19" rx="9.5" stroke="white"/>
<path d="M12 12C13.7259 12 15.125 10.6009 15.125 8.875C15.125 7.14911 13.7259 5.75 12 5.75C10.2741 5.75 8.875 7.14911 8.875 8.875C8.875 10.6009 10.2741 12 12 12Z" fill="white"/>
<path d="M17 17C17 15.6739 16.4732 14.4021 15.5355 13.4645C14.5979 12.5268 13.3261 12 12 12C10.6739 12 9.40215 12.5268 8.46447 13.4645C7.52678 14.4021 7 15.6739 7 17" fill="white"/>
</g>
</g>
<defs>
<filter id="filter0_d_388_7305" x="0" y="1" width="24" height="24" filterUnits="userSpaceOnUse" color-interpolation-filters="sRGB">
<feFlood flood-opacity="0" result="BackgroundImageFix"/>
<feColorMatrix in="SourceAlpha" type="matrix" values="0 0 0 0 0 0 0 0 0 0 0 0 0 0 0 0 0 0 127 0" result="hardAlpha"/>
<feOffset dy="1"/>
<feGaussianBlur stdDeviation="1"/>
<feComposite in2="hardAlpha" operator="out"/>
<feColorMatrix type="matrix" values="0 0 0 0 0.427451 0 0 0 0 0.368627 0 0 0 0 0.301961 0 0 0 0.11 0"/>
<feBlend mode="normal" in2="BackgroundImageFix" result="effect1_dropShadow_388_7305"/>
<feBlend mode="normal" in="SourceGraphic" in2="effect1_dropShadow_388_7305" result="shape"/>
</filter>
<clipPath id="clip0_388_7305">
<rect width="24" height="24" fill="white"/>
</clipPath>
</defs>
</svg>
