<svg width="28" height="28" viewBox="0 0 28 28" fill="none" xmlns="http://www.w3.org/2000/svg">
<g clip-path="url(#clip0_388_7307)">
<g filter="url(#filter0_d_388_7307)">
<path d="M21.2586 6.19231H6.74009C5.59461 6.19231 4.66602 7.15662 4.66602 8.34615V22.3462C4.66602 23.5357 5.59461 24.5 6.74009 24.5H21.2586C22.4041 24.5 23.3327 23.5357 23.3327 22.3462V8.34615C23.3327 7.15662 22.4041 6.19231 21.2586 6.19231Z" fill="#B9B9B9"/>
<path d="M21.2586 6.19231H6.74009C5.59461 6.19231 4.66602 7.15662 4.66602 8.34615V22.3462C4.66602 23.5357 5.59461 24.5 6.74009 24.5H21.2586C22.4041 24.5 23.3327 23.5357 23.3327 22.3462V8.34615C23.3327 7.15662 22.4041 6.19231 21.2586 6.19231Z" stroke="white" stroke-width="3" stroke-linecap="round" stroke-linejoin="round"/>
</g>
<path d="M21.2586 6.19231H6.74009C5.59461 6.19231 4.66602 7.15662 4.66602 8.34615V22.3462C4.66602 23.5357 5.59461 24.5 6.74009 24.5H21.2586C22.4041 24.5 23.3327 23.5357 23.3327 22.3462V8.34615C23.3327 7.15662 22.4041 6.19231 21.2586 6.19231Z" fill="#FF6638" stroke="#FF6638" stroke-linecap="round" stroke-linejoin="round"/>
<path d="M13.7397 20.9217C13.8155 20.9726 13.9061 21 13.9991 21C14.092 21 14.1826 20.9726 14.2584 20.9217L13.9993 20.5743L14.259 20.9217L14.2638 20.9183L14.2764 20.9098L14.3242 20.8769C14.3657 20.8485 14.4245 20.807 14.5007 20.7526C15.3898 20.116 16.229 19.4191 17.0117 18.6673C17.6986 18.0044 18.3968 17.2297 18.9257 16.4078C19.4522 15.5905 19.8327 14.6915 19.8327 13.7902C19.8327 12.7203 19.4827 11.8843 18.8635 11.3167C18.2472 10.7526 17.4156 10.5 16.5421 10.5C15.51 10.5 14.5988 10.9728 13.9993 11.7015C13.3999 10.9728 12.4881 10.5 11.4566 10.5C9.61388 10.5 8.16602 11.9978 8.16602 13.7902C8.16602 14.6915 8.54713 15.59 9.07302 16.4078C9.60191 17.2297 10.3001 18.0044 10.987 18.6679C11.8215 19.4688 12.72 20.2073 13.6745 20.8769L13.7223 20.9098L13.7349 20.9183L13.7397 20.9217Z" fill="#FAFAFA"/>
</g>
<defs>
<filter id="filter0_d_388_7307" x="1.16602" y="1" width="25.666" height="28" filterUnits="userSpaceOnUse" color-interpolation-filters="sRGB">
<feFlood flood-opacity="0" result="BackgroundImageFix"/>
<feColorMatrix in="SourceAlpha" type="matrix" values="0 0 0 0 0 0 0 0 0 0 0 0 0 0 0 0 0 0 127 0" result="hardAlpha"/>
<feOffset dy="1"/>
<feGaussianBlur stdDeviation="1"/>
<feComposite in2="hardAlpha" operator="out"/>
<feColorMatrix type="matrix" values="0 0 0 0 0 0 0 0 0 0 0 0 0 0 0 0 0 0 0.11 0"/>
<feBlend mode="normal" in2="BackgroundImageFix" result="effect1_dropShadow_388_7307"/>
<feBlend mode="normal" in="SourceGraphic" in2="effect1_dropShadow_388_7307" result="shape"/>
</filter>
<clipPath id="clip0_388_7307">
<rect width="28" height="28" fill="white"/>
</clipPath>
</defs>
</svg>
