<svg width="24" height="24" viewBox="0 0 24 24" fill="none" xmlns="http://www.w3.org/2000/svg">
<g clip-path="url(#clip0_388_7303)">
<g filter="url(#filter0_d_388_7303)">
<path d="M18.2222 5.30769H5.77778C4.79594 5.30769 4 6.13424 4 7.15385V19.1538C4 20.1734 4.79594 21 5.77778 21H18.2222C19.2041 21 20 20.1734 20 19.1538V7.15385C20 6.13424 19.2041 5.30769 18.2222 5.30769Z" fill="#D1CBC7"/>
<path d="M18.2222 5.30769H5.77778C4.79594 5.30769 4 6.13424 4 7.15385V19.1538C4 20.1734 4.79594 21 5.77778 21H18.2222C19.2041 21 20 20.1734 20 19.1538V7.15385C20 6.13424 19.2041 5.30769 18.2222 5.30769Z" stroke="white" stroke-width="2" stroke-linecap="round" stroke-linejoin="round"/>
</g>
<path d="M14.9287 3C15.6503 3.00033 16.2352 3.58911 16.2354 4.31543V5.18652H17.8564C18.1796 5.18659 18.4834 5.26165 18.7559 5.39258C19.4769 5.62795 20 6.3278 20 7.1543V19.1543C19.9998 20.1735 19.2042 20.9998 18.2227 21H5.77734C4.79585 20.9998 4.00023 20.1735 4 19.1543V7.1543C4 6.32814 4.52255 5.62823 5.24316 5.39258C5.51586 5.26141 5.82006 5.18659 6.14355 5.18652H7.34668V4.31543C7.34687 3.589 7.93162 3.00015 8.65332 3C9.37514 3 9.96074 3.5889 9.96094 4.31543V5.18652H13.6211V4.31543C13.6213 3.5889 14.2069 3 14.9287 3ZM8.65332 3.94727C8.45142 3.94741 8.28828 4.11221 8.28809 4.31543V5.18652H9.01953V4.31543C9.01934 4.11212 8.85534 3.94727 8.65332 3.94727ZM14.9287 3.94727C14.7267 3.94727 14.5627 4.11212 14.5625 4.31543V5.18652H15.2939V4.31543C15.2938 4.11232 15.1305 3.94759 14.9287 3.94727Z" fill="#D1CBC7"/>
<path d="M11.7774 17.9329C11.8424 17.9765 11.9201 18 11.9997 18C12.0794 18 12.1571 17.9765 12.2221 17.9329L12 17.6351L12.2226 17.9329L12.2267 17.93L12.2374 17.9227L12.2785 17.8944C12.314 17.8701 12.3644 17.8346 12.4297 17.7879C13.1918 17.2423 13.9111 16.6449 14.5821 16.0006C15.1708 15.4323 15.7692 14.7683 16.2226 14.0638C16.6738 13.3633 17 12.5927 17 11.8202C17 10.9031 16.7 10.1865 16.1692 9.70006C15.641 9.21649 14.9282 9 14.1795 9C13.2949 9 12.5138 9.40524 12 10.0299C11.4862 9.40524 10.7046 9 9.82051 9C8.24103 9 7 10.2838 7 11.8202C7 12.5927 7.32667 13.3628 7.77744 14.0638C8.23077 14.7683 8.82923 15.4323 9.41795 16.001C10.1332 16.6875 10.9034 17.3206 11.7215 17.8944L11.7626 17.9227L11.7733 17.93L11.7774 17.9329Z" fill="#FAFAFA"/>
</g>
<defs>
<filter id="filter0_d_388_7303" x="1" y="1" width="22" height="24" filterUnits="userSpaceOnUse" color-interpolation-filters="sRGB">
<feFlood flood-opacity="0" result="BackgroundImageFix"/>
<feColorMatrix in="SourceAlpha" type="matrix" values="0 0 0 0 0 0 0 0 0 0 0 0 0 0 0 0 0 0 127 0" result="hardAlpha"/>
<feOffset dy="1"/>
<feGaussianBlur stdDeviation="1"/>
<feComposite in2="hardAlpha" operator="out"/>
<feColorMatrix type="matrix" values="0 0 0 0 0.427451 0 0 0 0 0.368627 0 0 0 0 0.301961 0 0 0 0.11 0"/>
<feBlend mode="normal" in2="BackgroundImageFix" result="effect1_dropShadow_388_7303"/>
<feBlend mode="normal" in="SourceGraphic" in2="effect1_dropShadow_388_7303" result="shape"/>
</filter>
<clipPath id="clip0_388_7303">
<rect width="24" height="24" fill="white"/>
</clipPath>
</defs>
</svg>
