<svg width="24" height="24" viewBox="0 0 24 24" fill="none" xmlns="http://www.w3.org/2000/svg">
<g clip-path="url(#clip0_388_7304)">
<g filter="url(#filter0_d_388_7304)">
<path d="M2 5.14005C2 4.19879 2.69399 3.37831 3.68325 3.15002L8.66667 2V20.4615L4.76119 21.3628C3.35864 21.6865 2 20.7073 2 19.3728V5.14005Z" fill="white"/>
<path d="M22 4.846C22 3.44588 20.514 2.45723 19.0751 2.89998L15.3333 4.05128V22L20.3167 20.85C21.306 20.6217 22 19.8012 22 18.8599V4.846Z" fill="white"/>
<path d="M15.3333 4.01092L8.66667 2V20.5001L15.3333 22V4.01092Z" fill="white"/>
</g>
<path d="M2.99805 5.82437C2.99805 4.97715 3.6227 4.23865 4.51312 4.03317L8.99864 2.99805V19.6151L5.48336 20.4263C4.22094 20.7176 2.99805 19.8363 2.99805 18.6351V5.82437Z" fill="#D1CBC7"/>
<path d="M20.9998 5.5597C20.9998 4.29947 19.6623 3.40959 18.3671 3.80811L14.9992 4.84438V20.9998L19.4847 19.9647C20.3752 19.7592 20.9998 19.0207 20.9998 18.1735V5.5597Z" fill="#F5F1EF"/>
<path d="M14.9992 4.80806L8.99864 2.99805V19.6498L14.9992 20.9998V4.80806Z" fill="#E8E3E0"/>
</g>
<defs>
<filter id="filter0_d_388_7304" x="0" y="1" width="24" height="24" filterUnits="userSpaceOnUse" color-interpolation-filters="sRGB">
<feFlood flood-opacity="0" result="BackgroundImageFix"/>
<feColorMatrix in="SourceAlpha" type="matrix" values="0 0 0 0 0 0 0 0 0 0 0 0 0 0 0 0 0 0 127 0" result="hardAlpha"/>
<feOffset dy="1"/>
<feGaussianBlur stdDeviation="1"/>
<feComposite in2="hardAlpha" operator="out"/>
<feColorMatrix type="matrix" values="0 0 0 0 0.427451 0 0 0 0 0.368627 0 0 0 0 0.301961 0 0 0 0.11 0"/>
<feBlend mode="normal" in2="BackgroundImageFix" result="effect1_dropShadow_388_7304"/>
<feBlend mode="normal" in="SourceGraphic" in2="effect1_dropShadow_388_7304" result="shape"/>
</filter>
<clipPath id="clip0_388_7304">
<rect width="24" height="24" fill="white"/>
</clipPath>
</defs>
</svg>
